C:\Users\Nicos\Documents\OpenSimProjects\SprintingProject\Study1\PredictiveResults\IC_pred_Sprinting_optimum_28-October-2023__10-08-04_p02_maxVel_01___HTD_Minus_4_GRF.mot
version=1
nRows=4
nColumns=127
inDegrees=yes
endheader
time	ground_force_vx	ground_force_vy	ground_force_vz	ground_force_px	ground_force_py	ground_force_pz	ground_torque_x	ground_torque_y	ground_torque_z	1_ground_force_vx	1_ground_force_vy	1_ground_force_vz	1_ground_force_px	1_ground_force_py	1_ground_force_pz	1_ground_torque_x	1_ground_torque_y	1_ground_torque_z	2_ground_force_vx	2_ground_force_vy	2_ground_force_vz	2_ground_force_px	2_ground_force_py	2_ground_force_pz	2_ground_torque_x	2_ground_torque_y	2_ground_torque_z	3_ground_force_vx	3_ground_force_vy	3_ground_force_vz	3_ground_force_px	3_ground_force_py	3_ground_force_pz	3_ground_torque_x	3_ground_torque_y	3_ground_torque_z	4_ground_force_vx	4_ground_force_vy	4_ground_force_vz	4_ground_force_px	4_ground_force_py	4_ground_force_pz	4_ground_torque_x	4_ground_torque_y	4_ground_torque_z	5_ground_force_vx	5_ground_force_vy	5_ground_force_vz	5_ground_force_px	5_ground_force_py	5_ground_force_pz	5_ground_torque_x	5_ground_torque_y	5_ground_torque_z	6_ground_force_vx	6_ground_force_vy	6_ground_force_vz	6_ground_force_px	6_ground_force_py	6_ground_force_pz	6_ground_torque_x	6_ground_torque_y	6_ground_torque_z	7_ground_force_vx	7_ground_force_vy	7_ground_force_vz	7_ground_force_px	7_ground_force_py	7_ground_force_pz	7_ground_torque_x	7_ground_torque_y	7_ground_torque_z	8_ground_force_vx	8_ground_force_vy	8_ground_force_vz	8_ground_force_px	8_ground_force_py	8_ground_force_pz	8_ground_torque_x	8_ground_torque_y	8_ground_torque_z	9_ground_force_vx	9_ground_force_vy	9_ground_force_vz	9_ground_force_px	9_ground_force_py	9_ground_force_pz	9_ground_torque_x	9_ground_torque_y	9_ground_torque_z	10_ground_force_vx	10_ground_force_vy	10_ground_force_vz	10_ground_force_px	10_ground_force_py	10_ground_force_pz	10_ground_torque_x	10_ground_torque_y	10_ground_torque_z	11_ground_force_vx	11_ground_force_vy	11_ground_force_vz	11_ground_force_px	11_ground_force_py	11_ground_force_pz	11_ground_torque_x	11_ground_torque_y	11_ground_torque_z	12_ground_force_vx	12_ground_force_vy	12_ground_force_vz	12_ground_force_px	12_ground_force_py	12_ground_force_pz	12_ground_torque_x	12_ground_torque_y	12_ground_torque_z	13_ground_force_vx	13_ground_force_vy	13_ground_force_vz	13_ground_force_px	13_ground_force_py	13_ground_force_pz	13_ground_torque_x	13_ground_torque_y	13_ground_torque_z
0.202219	-0.000000	0.000000	-0.000000	0.990861	0.184757	0.451776	0.000000	0.000000	0.000000	-0.000000	0.000000	-0.000000	1.011066	0.204992	0.472296	0.000000	0.000000	0.000000	-0.000000	0.000000	-0.000000	1.025820	0.215045	0.469562	0.000000	0.000000	0.000000	-0.000000	0.000000	-0.000000	1.022064	0.213538	0.447352	0.000000	0.000000	0.000000	-0.000000	0.000000	-0.000000	1.058361	0.255322	0.499176	0.000000	0.000000	0.000000	-0.000000	0.000000	-0.000000	1.035234	0.229030	0.464175	0.000000	0.000000	0.000000	-0.000000	0.000000	-0.000000	1.072892	0.284971	0.442628	0.000000	0.000000	0.000000	-0.000000	0.000000	-0.000000	2.175971	0.099192	0.079281	0.000000	0.000000	0.000000	-0.000000	0.000000	-0.000000	2.129359	0.098552	0.062167	0.000000	0.000000	0.000000	-0.000000	0.000000	-0.000000	2.099711	0.092651	0.072333	0.000000	0.000000	0.000000	-0.000000	0.000000	-0.000000	2.106864	0.087999	0.091795	0.000000	0.000000	0.000000	-0.000000	0.000000	-0.000000	2.010252	0.091810	0.051861	0.000000	0.000000	0.000000	-0.000000	0.000000	-0.000000	2.071475	0.088882	0.079107	0.000000	0.000000	0.000000	-0.000000	0.000000	-0.000000	1.958530	0.073805	0.106204	0.000000	0.000000	0.000000
0.203598	-0.000000	0.000000	-0.000000	1.009810	0.186665	0.452854	0.000000	0.000000	0.000000	-0.000000	0.000000	-0.000000	1.030055	0.206926	0.473236	0.000000	0.000000	0.000000	-0.000000	0.000000	-0.000000	1.044814	0.216966	0.470437	0.000000	0.000000	0.000000	-0.000000	0.000000	-0.000000	1.041030	0.215428	0.448240	0.000000	0.000000	0.000000	-0.000000	0.000000	-0.000000	1.077406	0.257282	0.499784	0.000000	0.000000	0.000000	-0.000000	0.000000	-0.000000	1.054226	0.230943	0.464960	0.000000	0.000000	0.000000	-0.000000	0.000000	-0.000000	1.091875	0.286850	0.443052	0.000000	0.000000	0.000000	-0.000000	0.000000	-0.000000	2.191111	0.097569	0.080924	0.000000	0.000000	0.000000	-0.000000	0.000000	-0.000000	2.144611	0.096960	0.063505	0.000000	0.000000	0.000000	-0.000000	0.000000	-0.000000	2.114802	0.090994	0.073543	0.000000	0.000000	0.000000	-0.000000	0.000000	-0.000000	2.121822	0.086338	0.093049	0.000000	0.000000	0.000000	-0.000000	0.000000	-0.000000	2.025446	0.090295	0.052605	0.000000	0.000000	0.000000	-0.000000	0.000000	-0.000000	2.086506	0.087275	0.080176	0.000000	0.000000	0.000000	-0.000000	0.000000	-0.000000	1.973321	0.072397	0.106704	0.000000	0.000000	0.000000
0.204200	-0.000000	0.000000	-0.000000	1.018142	0.187477	0.453342	0.000000	0.000000	0.000000	-0.000000	0.000000	-0.000000	1.038401	0.207750	0.473660	0.000000	0.000000	0.000000	-0.000000	0.000000	-0.000000	1.053160	0.217787	0.470831	0.000000	0.000000	0.000000	-0.000000	0.000000	-0.000000	1.049362	0.216235	0.448640	0.000000	0.000000	0.000000	-0.000000	0.000000	-0.000000	1.085767	0.258121	0.500056	0.000000	0.000000	0.000000	-0.000000	0.000000	-0.000000	1.062568	0.231760	0.465313	0.000000	0.000000	0.000000	-0.000000	0.000000	-0.000000	1.100198	0.287655	0.443240	0.000000	0.000000	0.000000	-0.000000	0.000000	-0.000000	2.197631	0.096844	0.081731	0.000000	0.000000	0.000000	-0.000000	0.000000	-0.000000	2.151188	0.096245	0.064157	0.000000	0.000000	0.000000	-0.000000	0.000000	-0.000000	2.121300	0.090248	0.074132	0.000000	0.000000	0.000000	-0.000000	0.000000	-0.000000	2.128253	0.085593	0.093663	0.000000	0.000000	0.000000	-0.000000	0.000000	-0.000000	2.031998	0.089612	0.052955	0.000000	0.000000	0.000000	-0.000000	0.000000	-0.000000	2.092974	0.086553	0.080693	0.000000	0.000000	0.000000	-0.000000	0.000000	-0.000000	1.979671	0.071774	0.106938	0.000000	0.000000	0.000000
0.206103	-0.000000	0.000000	-0.000000	1.044695	0.189959	0.454962	0.000000	0.000000	0.000000	-0.000000	0.000000	-0.000000	1.064987	0.210277	0.475065	0.000000	0.000000	0.000000	-0.000000	0.000000	-0.000000	1.079731	0.220307	0.472126	0.000000	0.000000	0.000000	-0.000000	0.000000	-0.000000	1.075880	0.218709	0.449957	0.000000	0.000000	0.000000	-0.000000	0.000000	-0.000000	1.112364	0.260710	0.500940	0.000000	0.000000	0.000000	-0.000000	0.000000	-0.000000	1.089109	0.234271	0.466470	0.000000	0.000000	0.000000	-0.000000	0.000000	-0.000000	1.126621	0.290131	0.443849	0.000000	0.000000	0.000000	-0.000000	0.000000	-0.000000	2.217884	0.094535	0.084665	0.000000	0.000000	0.000000	-0.000000	0.000000	-0.000000	2.171674	0.093942	0.066485	0.000000	0.000000	0.000000	-0.000000	0.000000	-0.000000	2.141465	0.087786	0.076238	0.000000	0.000000	0.000000	-0.000000	0.000000	-0.000000	2.148167	0.083150	0.095876	0.000000	0.000000	0.000000	-0.000000	0.000000	-0.000000	2.052377	0.087358	0.054161	0.000000	0.000000	0.000000	-0.000000	0.000000	-0.000000	2.113033	0.084184	0.082541	0.000000	0.000000	0.000000	-0.000000	0.000000	-0.000000	1.999304	0.069776	0.107750	0.000000	0.000000	0.000000
